<svg data-v-0dd9719b="" version="1.0" xmlns="http://www.w3.org/2000/svg" xmlns:xlink="http://www.w3.org/1999/xlink" width="100%" height="100%" viewBox="0 0 340.000000 250.000000" preserveAspectRatio="xMidYMid meet" color-interpolation-filters="sRGB" style="margin: auto;"> <rect data-v-0dd9719b="" x="0" y="0" width="100%" height="100%" fill="#ffffff" fill-opacity="0" class="background"></rect> <rect data-v-0dd9719b="" x="0" y="0" width="100%" height="100%" fill="url(#watermark)" fill-opacity="1" class="watermarklayer"></rect> <g data-v-0dd9719b="" fill="#505e86" class="endsvg" transform="translate(63.904998779296875,107.94499969482422)"><g class="tp-name" opacity="1" transform="matrix(1,0,0,1,0,0)"><g><rect data-gra="graph-name-bg" stroke-width="2" class="i-icon-bg" x="0" y="0" width="212.19000244140625" height="34.11000061035156" fill-opacity="0"></rect> <!----> <!----> </g> <g transform="translate(0,0)"><g data-gra="path-name-bg" mask="url(#18066a28-5bd8-4f7e-89e1-770542664838)"><g><rect data-gra="graph-name-bg" stroke-width="2" class="i-icon-bg" x="0" y="0" width="130.66000366210938" height="34.11000061035156"></rect> <!----> <!----> </g> <g transform="translate(5,7)"><g data-gra="path-name" fill="#505e86"><g transform="scale(1)"><path d="M15.51-7.60L19.84 0L13.13 0L9.34-7.26Q9.24-7.43 8.81-8.22Q8.39-9.00 7.88-9.72L7.88-9.72L7.88 0L1.74 0L1.74-19.43L7.88-19.43L7.88-10.60Q8.46-11.25 8.88-12.02Q9.31-12.79 9.38-12.92L9.38-12.92L13.02-19.43L19.50-19.43L15.62-12.92Q15.51-12.79 15.17-12.21Q14.83-11.63 14.44-11.13Q14.05-10.64 13.60-10.23L13.60-10.23Q14.22-9.65 14.61-9.09Q15.00-8.52 15.51-7.60L15.51-7.60ZM33.38-19.43L39.52-19.43L39.52-8.56Q39.52-5.18 38.78-3.29Q38.05-1.40 36.04-0.51Q34.03 0.38 30.17 0.38L30.17 0.38Q27.34 0.38 25.40-0.22Q23.46-0.82 22.31-2.49Q21.17-4.16 21.17-7.19L21.17-7.19L21.17-19.43L27.31-19.43L27.31-8.49Q27.31-6.68 27.50-5.74Q27.68-4.81 28.37-4.31Q29.05-3.82 30.45-3.82L30.45-3.82Q31.30-3.82 32.05-3.99Q32.80-4.16 33.07-4.50L33.07-4.50Q33.38-4.91 33.38-7.47L33.38-7.47L33.38-19.43ZM48.48-10.50L48.45-7.84L48.45 0L42.75 0L42.75-19.43L48.52-19.43L53.66-11.59Q54.82-9.85 55.44-8.66L55.44-8.66L55.54-8.66L55.54-11.93L55.54-19.43L61.20-19.43L61.20 0L55.40 0L50.12-8.18L48.58-10.50L48.48-10.50ZM71.39-19.43Q75.38-19.43 77.92-18.68Q80.46-17.93 81.88-15.85Q83.29-13.77 83.29-9.89L83.29-9.89Q83.29-5.73 81.79-3.56Q80.29-1.40 77.77-0.70Q75.25 0 71.39 0L71.39 0L64.57 0L64.57-19.43L71.39-19.43ZM75.96-4.64Q76.37-5.05 76.54-6.75Q76.71-8.46 76.71-9.89L76.71-9.89Q76.71-11.69 76.46-12.77Q76.20-13.84 75.55-14.49L75.55-14.49Q74.53-15.62 72.04-15.62L72.04-15.62Q71.60-15.62 70.71-15.55L70.71-15.55L70.71-4.23Q71.29-4.16 72.52-4.16L72.52-4.16Q73.78-4.16 74.75-4.28Q75.72-4.40 75.96-4.64L75.96-4.64ZM98.06-19.43L104.19-19.43L104.19-8.56Q104.19-5.18 103.46-3.29Q102.73-1.40 100.71-0.51Q98.70 0.38 94.85 0.38L94.85 0.38Q92.02 0.38 90.08-0.22Q88.13-0.82 86.99-2.49Q85.85-4.16 85.85-7.19L85.85-7.19L85.85-19.43L91.99-19.43L91.99-8.49Q91.99-6.68 92.17-5.74Q92.36-4.81 93.04-4.31Q93.73-3.82 95.12-3.82L95.12-3.82Q95.98-3.82 96.73-3.99Q97.48-4.16 97.75-4.50L97.75-4.50Q98.06-4.91 98.06-7.47L98.06-7.47L98.06-19.43ZM113.02-3.72L122.40-3.72L122.40 0L106.65 0L106.65-3.89L115.89-15.68L106.92-15.68L106.92-19.43L122.13-19.43L122.13-15.51L113.02-3.72Z" transform="translate(-1.7388081826267419, 19.67239845834569)"></path></g></g></g></g> <g data-gra="path-name-1-bg" transform="translate(130.66000366210938,0)"><g><rect data-gra="graph-name-bg" stroke-width="2" class="i-icon-bg" x="0" y="0" width="81.52999877929688" height="34.11000061035156" fill-opacity="0"></rect> <!----> <!----> </g> <g transform="translate(5,7)"><rect data-gra="graph-name-bg" x="0" y="-7" width="71.52999877929688" height="2" fill="#505e86"></rect> <rect data-gra="graph-name-bg" x="0" y="25.110000610351562" width="71.52999877929688" height="2" fill="#505e86"></rect> <g data-gra="path-name-1" fill="#505e86"><g transform="scale(1)"><path d="M7.30-14.18Q7.30-13.47 8.03-13.06Q8.76-12.65 10.33-12.17L10.33-12.17Q12.21-11.56 13.42-10.98Q14.63-10.40 15.53-9.17Q16.43-7.94 16.43-5.97L16.43-5.97Q16.43 0.38 8.18 0.38L8.18 0.38Q6.82 0.38 4.86 0.14Q2.90-0.10 1.30-0.48L1.30-0.48Q1.36-1.19 1.59-2.57Q1.81-3.95 2.01-4.64L2.01-4.64Q3.20-4.47 5.61-4.23Q8.01-3.99 9.24-3.99L9.24-3.99Q9.96-3.99 10.09-4.09L10.09-4.09Q10.30-4.23 10.42-4.55Q10.54-4.88 10.54-5.11L10.54-5.11Q10.54-5.80 9.89-6.15Q9.24-6.51 7.67-7.02L7.67-7.02Q5.80-7.60 4.57-8.22Q3.34-8.83 2.42-10.13Q1.50-11.42 1.50-13.54L1.50-13.54Q1.50-15.04 2.18-16.48Q2.86-17.93 3.58-18.45L3.58-18.45Q4.13-18.82 5.83-19.16Q7.53-19.50 9.03-19.50L9.03-19.50Q12.85-19.50 15.27-18.79L15.27-18.79Q15.24-18.10 15.05-16.91Q14.87-15.72 14.66-14.73L14.66-14.73L13.88-14.76Q9.44-15.07 8.22-15.07L8.22-15.07Q7.71-15.07 7.64-15.04L7.64-15.04Q7.50-14.97 7.40-14.73Q7.30-14.49 7.30-14.18L7.30-14.18ZM28.74 0.44Q23.66 0.44 21.12-1.96Q18.58-4.36 18.58-9.68L18.58-9.68Q18.58-14.90 21.38-17.29Q24.17-19.67 28.78-19.67L28.78-19.67Q38.46-19.67 38.46-10.02L38.46-10.02Q38.46-5.15 36.09-2.35Q33.72 0.44 28.74 0.44L28.74 0.44ZM28.61-3.58Q29.56-3.58 30.21-3.90Q30.86-4.23 31.23-5.05L31.23-5.05Q31.95-6.44 31.95-9.61L31.95-9.61Q31.95-12.72 31.23-14.12L31.23-14.12Q30.51-15.55 28.61-15.62L28.61-15.62Q27.89-15.62 27.12-15.46Q26.35-15.31 26.15-15.04L26.15-15.04Q25.74-14.56 25.52-13.01Q25.30-11.46 25.30-9.61L25.30-9.61Q25.30-6.75 25.84-5.42L25.84-5.42Q26.22-4.43 26.90-4.01Q27.58-3.58 28.61-3.58L28.61-3.58ZM41.12 0L41.12-19.43L55.06-19.43L55.06-15.21L47.25-15.21L47.25-11.35L53.70-11.35L53.70-7.64L47.25-7.64L47.25 0L41.12 0ZM67.34-15.17L67.34 0L61.20 0L61.20-15.17L55.71-15.17L55.71-19.43L72.83-19.43L72.83-15.17L67.34-15.17Z" transform="translate(-1.2955825674473764, 19.67239845834569)"></path></g></g></g></g></g></g> <!----> <!----> <!----> <!----> <!----> <!----></g><mask id="18066a28-5bd8-4f7e-89e1-770542664838"><g fill="white"><rect data-gra="graph-name-bg" stroke-width="2" class="i-icon-bg" x="0" y="0" width="130.66000366210938" height="34.11000061035156"></rect>   </g> <g transform="translate(5,7)" fill="black"><g data-gra="path-name"><g transform="scale(1)"><path d="M15.51-7.60L19.84 0L13.13 0L9.34-7.26Q9.24-7.43 8.81-8.22Q8.39-9.00 7.88-9.72L7.88-9.72L7.88 0L1.74 0L1.74-19.43L7.88-19.43L7.88-10.60Q8.46-11.25 8.88-12.02Q9.31-12.79 9.38-12.92L9.38-12.92L13.02-19.43L19.50-19.43L15.62-12.92Q15.51-12.79 15.17-12.21Q14.83-11.63 14.44-11.13Q14.05-10.64 13.60-10.23L13.60-10.23Q14.22-9.65 14.61-9.09Q15.00-8.52 15.51-7.60L15.51-7.60ZM33.38-19.43L39.52-19.43L39.52-8.56Q39.52-5.18 38.78-3.29Q38.05-1.40 36.04-0.51Q34.03 0.38 30.17 0.38L30.17 0.38Q27.34 0.38 25.40-0.22Q23.46-0.82 22.31-2.49Q21.17-4.16 21.17-7.19L21.17-7.19L21.17-19.43L27.31-19.43L27.31-8.49Q27.31-6.68 27.50-5.74Q27.68-4.81 28.37-4.31Q29.05-3.82 30.45-3.82L30.45-3.82Q31.30-3.82 32.05-3.99Q32.80-4.16 33.07-4.50L33.07-4.50Q33.38-4.91 33.38-7.47L33.38-7.47L33.38-19.43ZM48.48-10.50L48.45-7.84L48.45 0L42.75 0L42.75-19.43L48.52-19.43L53.66-11.59Q54.82-9.85 55.44-8.66L55.44-8.66L55.54-8.66L55.54-11.93L55.54-19.43L61.20-19.43L61.20 0L55.40 0L50.12-8.18L48.58-10.50L48.48-10.50ZM71.39-19.43Q75.38-19.43 77.92-18.68Q80.46-17.93 81.88-15.85Q83.29-13.77 83.29-9.89L83.29-9.89Q83.29-5.73 81.79-3.56Q80.29-1.40 77.77-0.70Q75.25 0 71.39 0L71.39 0L64.57 0L64.57-19.43L71.39-19.43ZM75.96-4.64Q76.37-5.05 76.54-6.75Q76.71-8.46 76.71-9.89L76.71-9.89Q76.71-11.69 76.46-12.77Q76.20-13.84 75.55-14.49L75.55-14.49Q74.53-15.62 72.04-15.62L72.04-15.62Q71.60-15.62 70.71-15.55L70.71-15.55L70.71-4.23Q71.29-4.16 72.52-4.16L72.52-4.16Q73.78-4.16 74.75-4.28Q75.72-4.40 75.96-4.64L75.96-4.64ZM98.06-19.43L104.19-19.43L104.19-8.56Q104.19-5.18 103.46-3.29Q102.73-1.40 100.71-0.51Q98.70 0.38 94.85 0.38L94.85 0.38Q92.02 0.38 90.08-0.22Q88.13-0.82 86.99-2.49Q85.85-4.16 85.85-7.19L85.85-7.19L85.85-19.43L91.99-19.43L91.99-8.49Q91.99-6.68 92.17-5.74Q92.36-4.81 93.04-4.31Q93.73-3.82 95.12-3.82L95.12-3.82Q95.98-3.82 96.73-3.99Q97.48-4.16 97.75-4.50L97.75-4.50Q98.06-4.91 98.06-7.47L98.06-7.47L98.06-19.43ZM113.02-3.72L122.40-3.72L122.40 0L106.65 0L106.65-3.89L115.89-15.68L106.92-15.68L106.92-19.43L122.13-19.43L122.13-15.51L113.02-3.72Z" transform="translate(-1.7388081826267419, 19.67239845834569)"></path></g></g></g></mask><defs v-gra="od"></defs></svg>